<svg xmlns="http://www.w3.org/2000/svg" width="490" height="360" viewBox="0 0 490 360" font-family="SFMono-Regular, Consolas, 'Liberation Mono', Menlo, monospace" font-size="15">
<style>
@keyframes fadeSlide {0%{opacity:0; transform:translateX(-8px);}100%{opacity:1; transform:translateX(0);}}
</style>
<rect width="100%" height="100%" fill="transparent"/>
<circle cx="18" cy="18" r="6" fill="#ff5f56"/>
<circle cx="38" cy="18" r="6" fill="#ffbd2e"/>
<circle cx="58" cy="18" r="6" fill="#27c93f"/>
<text x="80" y="23" fill="#58a6ff">harsh@github ~ % neofetch</text>
<line x1="0" y1="38" x2="490" y2="38" stroke="#30363d" stroke-width="1"/>
<g style="opacity:0; animation:fadeSlide 0.45s ease-out forwards; animation-delay:0.25s">
<text x="24" y="70" fill="#7ee787">os</text>
<text x="130" y="70" fill="#8b949e">:</text>
<text x="148" y="70" fill="#c9d1d9">Harsh Upadhyay OS</text>
</g>
<g style="opacity:0; animation:fadeSlide 0.45s ease-out forwards; animation-delay:0.43s">
<text x="24" y="102" fill="#7ee787">host</text>
<text x="130" y="102" fill="#8b949e">:</text>
<text x="148" y="102" fill="#c9d1d9">BCA Student · Full-Stack Dev</text>
</g>
<g style="opacity:0; animation:fadeSlide 0.45s ease-out forwards; animation-delay:0.61s">
<text x="24" y="134" fill="#7ee787">now</text>
<text x="130" y="134" fill="#8b949e">:</text>
<text x="148" y="134" fill="#c9d1d9">Cinevood — movie review platform</text>
</g>
<g style="opacity:0; animation:fadeSlide 0.45s ease-out forwards; animation-delay:0.79s">
<text x="24" y="166" fill="#7ee787">also</text>
<text x="130" y="166" fill="#8b949e">:</text>
<text x="148" y="166" fill="#c9d1d9">Weather App — live forecast tracker</text>
</g>
<g style="opacity:0; animation:fadeSlide 0.45s ease-out forwards; animation-delay:0.97s">
<text x="24" y="198" fill="#7ee787">automation</text>
<text x="130" y="198" fill="#8b949e">:</text>
<text x="148" y="198" fill="#c9d1d9">@TIMEPASSQ_BOT — Telegram task bot</text>
</g>
<g style="opacity:0; animation:fadeSlide 0.45s ease-out forwards; animation-delay:1.15s">
<text x="24" y="230" fill="#7ee787">stack</text>
<text x="130" y="230" fill="#8b949e">:</text>
<text x="148" y="230" fill="#c9d1d9">JS/TS · React/Next.js · Node.js/Express</text>
</g>
<g style="opacity:0; animation:fadeSlide 0.45s ease-out forwards; animation-delay:1.33s">
<text x="24" y="262" fill="#7ee787"></text>
<text x="130" y="262" fill="#8b949e">:</text>
<text x="148" y="262" fill="#c9d1d9">Python · MongoDB/SQL</text>
</g>
<g style="opacity:0; animation:fadeSlide 0.45s ease-out forwards; animation-delay:1.51s">
<text x="24" y="294" fill="#7ee787">focus</text>
<text x="130" y="294" fill="#8b949e">:</text>
<text x="148" y="294" fill="#c9d1d9">AI-driven automation</text>
</g>
<g style="opacity:0; animation:fadeSlide 0.35s ease-out forwards; animation-delay:1.69s"><rect x="24" y="340" width="20" height="20" rx="4" fill="#0e4429"/></g>
<g style="opacity:0; animation:fadeSlide 0.35s ease-out forwards; animation-delay:1.74s"><rect x="50" y="340" width="20" height="20" rx="4" fill="#006d32"/></g>
<g style="opacity:0; animation:fadeSlide 0.35s ease-out forwards; animation-delay:1.79s"><rect x="76" y="340" width="20" height="20" rx="4" fill="#26a641"/></g>
<g style="opacity:0; animation:fadeSlide 0.35s ease-out forwards; animation-delay:1.84s"><rect x="102" y="340" width="20" height="20" rx="4" fill="#39d353"/></g>
<g style="opacity:0; animation:fadeSlide 0.35s ease-out forwards; animation-delay:1.89s"><rect x="128" y="340" width="20" height="20" rx="4" fill="#58a6ff"/></g>
<g style="opacity:0; animation:fadeSlide 0.35s ease-out forwards; animation-delay:1.94s"><rect x="154" y="340" width="20" height="20" rx="4" fill="#7ee787"/></g>
</svg> 
